<?xml version="1.0" encoding="iso-8859-1"?>
<!-- Uploaded to: SVG Repo, www.svgrepo.com, Generator: SVG Repo Mixer Tools -->
<svg height="800px" width="800px" version="1.1" id="Layer_1" xmlns="http://www.w3.org/2000/svg" xmlns:xlink="http://www.w3.org/1999/xlink" 
	 viewBox="0 0 512 512" xml:space="preserve">
<path style="fill:#CFDCE5;" d="M481.551,88.973v243.931c0,27.274-22.098,49.385-49.372,49.385h-14.444
	c-14.637,0-28.513,6.48-37.91,17.697L286.011,512V408.906c0-14.702-11.914-26.616-26.616-26.616H79.835
	c-27.274,0-49.385-22.111-49.385-49.385V88.973c0-27.261,22.111-49.372,49.385-49.372h352.344
	C459.452,39.601,481.551,61.712,481.551,88.973z"/>
<path style="fill:#BAC6CC;" d="M271.025,50.753l-78.57,255.561L30.449,164.729V88.973c0-27.261,22.111-49.372,49.385-49.372h180.038
	L271.025,50.753z"/>
<polygon style="fill:#FF6F52;" points="260.02,0 129.774,153.156 192.45,153.156 192.45,306.312 327.588,306.312 327.588,153.156 
	390.264,153.156 "/>
</svg>